<svg width="512" height="512" viewBox="0 0 512 512" fill="none" xmlns="http://www.w3.org/2000/svg">
<g clip-path="url(#clip0_34_13)">
<rect width="512" height="512" fill="white"/>
<rect width="512" height="512" fill="url(#paint0_linear_34_13)"/>
<rect width="512" height="512" fill="url(#paint1_linear_34_13)"/>
<path d="M99.1532 346.16C104.553 346.16 109.013 347.58 112.533 350.42C116.093 353.26 118.393 357.1 119.433 361.94H108.573C107.773 359.98 106.533 358.44 104.853 357.32C103.213 356.2 101.253 355.64 98.9732 355.64C95.9732 355.64 93.5532 356.74 91.7132 358.94C89.8732 361.14 88.9532 364.08 88.9532 367.76C88.9532 371.44 89.8732 374.38 91.7132 376.58C93.5532 378.74 95.9732 379.82 98.9732 379.82C101.253 379.82 103.213 379.26 104.853 378.14C106.533 377.02 107.773 375.5 108.573 373.58H119.433C118.393 378.38 116.093 382.22 112.533 385.1C109.013 387.94 104.553 389.36 99.1532 389.36C95.0332 389.36 91.4132 388.46 88.2932 386.66C85.1732 384.82 82.7532 382.26 81.0332 378.98C79.3532 375.7 78.5132 371.96 78.5132 367.76C78.5132 363.56 79.3532 359.82 81.0332 356.54C82.7532 353.26 85.1732 350.72 88.2932 348.92C91.4132 347.08 95.0332 346.16 99.1532 346.16ZM147.143 345.92C151.143 345.92 154.763 346.86 158.003 348.74C161.283 350.58 163.863 353.16 165.743 356.48C167.623 359.76 168.563 363.48 168.563 367.64C168.563 371.8 167.603 375.54 165.683 378.86C163.803 382.18 161.223 384.78 157.943 386.66C154.703 388.5 151.103 389.42 147.143 389.42C143.183 389.42 139.563 388.5 136.283 386.66C133.043 384.78 130.463 382.18 128.543 378.86C126.663 375.54 125.723 371.8 125.723 367.64C125.723 363.48 126.663 359.76 128.543 356.48C130.463 353.16 133.043 350.58 136.283 348.74C139.563 346.86 143.183 345.92 147.143 345.92ZM147.143 355.46C143.783 355.46 141.103 356.56 139.103 358.76C137.143 360.92 136.163 363.88 136.163 367.64C136.163 371.36 137.143 374.32 139.103 376.52C141.103 378.72 143.783 379.82 147.143 379.82C150.463 379.82 153.123 378.72 155.123 376.52C157.123 374.32 158.123 371.36 158.123 367.64C158.123 363.92 157.123 360.96 155.123 358.76C153.163 356.56 150.503 355.46 147.143 355.46ZM223.827 346.88V389H213.567V362.66L204.447 389H195.567L186.387 362.6V389H176.127V346.88H188.667L200.127 376.22L211.347 346.88H223.827ZM280.412 346.88V389H270.152V362.66L261.032 389H252.152L242.972 362.6V389H232.712V346.88H245.252L256.712 376.22L267.932 346.88H280.412ZM315.577 381.26H299.677L297.037 389H286.237L301.777 346.88H313.597L329.137 389H318.217L315.577 381.26ZM312.937 373.46L307.657 357.86L302.317 373.46H312.937ZM372.606 389H362.346L345.186 362.96V389H334.926V346.58H345.186L362.346 372.86V346.58H372.606V389ZM419.651 367.7C419.651 371.86 418.751 375.56 416.951 378.8C415.191 382 412.631 384.5 409.271 386.3C405.951 388.1 402.031 389 397.511 389H381.491V346.58H397.511C402.071 346.58 406.011 347.46 409.331 349.22C412.651 350.98 415.191 353.46 416.951 356.66C418.751 359.86 419.651 363.54 419.651 367.7ZM396.611 379.82C400.611 379.82 403.711 378.76 405.911 376.64C408.151 374.52 409.271 371.54 409.271 367.7C409.271 363.86 408.151 360.88 405.911 358.76C403.711 356.64 400.611 355.58 396.611 355.58H391.751V379.82H396.611ZM160.631 422.16C166.031 422.16 170.491 423.58 174.011 426.42C177.571 429.26 179.871 433.1 180.911 437.94H170.051C169.251 435.98 168.011 434.44 166.331 433.32C164.691 432.2 162.731 431.64 160.451 431.64C157.451 431.64 155.031 432.74 153.191 434.94C151.351 437.14 150.431 440.08 150.431 443.76C150.431 447.44 151.351 450.38 153.191 452.58C155.031 454.74 157.451 455.82 160.451 455.82C162.731 455.82 164.691 455.26 166.331 454.14C168.011 453.02 169.251 451.5 170.051 449.58H180.911C179.871 454.38 177.571 458.22 174.011 461.1C170.491 463.94 166.031 465.36 160.631 465.36C156.511 465.36 152.891 464.46 149.771 462.66C146.651 460.82 144.231 458.26 142.511 454.98C140.831 451.7 139.991 447.96 139.991 443.76C139.991 439.56 140.831 435.82 142.511 432.54C144.231 429.26 146.651 426.72 149.771 424.92C152.891 423.08 156.511 422.16 160.631 422.16ZM198.721 430.74V439.62H213.061V447.36H198.721V456.78H214.861V465H188.461V422.58H214.861V430.74H198.721ZM260.168 465H249.908L232.748 438.96V465H222.488V422.58H232.748L249.908 448.86V422.58H260.168V465ZM299.533 422.58V430.74H288.013V465H277.693V430.74H266.293V422.58H299.533ZM315.918 430.74V439.62H330.258V447.36H315.918V456.78H332.058V465H305.658V422.58H332.058V430.74H315.918ZM361.465 465L352.285 448.98H349.945V465H339.685V422.58H357.205C360.565 422.58 363.405 423.16 365.725 424.32C368.045 425.48 369.785 427.08 370.945 429.12C372.105 431.12 372.685 433.42 372.685 436.02C372.685 439.1 371.825 441.72 370.105 443.88C368.425 446.04 365.965 447.52 362.725 448.32L372.805 465H361.465ZM349.945 441.96H356.305C358.345 441.96 359.845 441.52 360.805 440.64C361.765 439.72 362.245 438.38 362.245 436.62C362.245 434.94 361.745 433.62 360.745 432.66C359.785 431.7 358.305 431.22 356.305 431.22H349.945V441.96Z" fill="#005FF9"/>
<path d="M155.195 285.384L130.715 303.943C75.1612 226.499 100.573 145.944 120.224 115.348C160.59 43.9224 236.294 28.7412 269.1 30.0788V60.1737C211.947 57.7661 169.349 95.9533 155.195 115.348C103.238 188.378 133.546 259.135 155.195 285.384Z" fill="#F39C12"/>
<mask id="path-5-inside-1_34_13" fill="white">
<path d="M362.054 277.333C346.428 296.647 325.246 310.649 301.4 317.428C277.553 324.207 252.204 323.432 228.813 315.209C205.421 306.986 185.127 291.716 170.701 271.483C156.274 251.25 148.418 227.04 148.205 202.158C147.991 177.276 155.432 152.934 169.509 132.455C183.587 111.976 203.617 96.3577 226.864 87.7321C250.111 79.1065 275.443 77.8939 299.402 84.2598C323.361 90.6257 344.78 104.26 360.735 123.301L339.065 141.603C326.863 127.04 310.482 116.612 292.158 111.744C273.834 106.875 254.459 107.802 236.68 114.399C218.9 120.996 203.581 132.941 192.815 148.604C182.048 164.267 176.357 182.884 176.52 201.914C176.684 220.944 182.692 239.46 193.726 254.934C204.759 270.408 220.28 282.087 238.17 288.376C256.06 294.665 275.448 295.257 293.686 290.073C311.924 284.888 328.124 274.18 340.075 259.408L362.054 277.333Z"/>
</mask>
<path d="M362.054 277.333C346.428 296.647 325.246 310.649 301.4 317.428C277.553 324.207 252.204 323.432 228.813 315.209C205.421 306.986 185.127 291.716 170.701 271.483C156.274 251.25 148.418 227.04 148.205 202.158C147.991 177.276 155.432 152.934 169.509 132.455C183.587 111.976 203.617 96.3577 226.864 87.7321C250.111 79.1065 275.443 77.8939 299.402 84.2598C323.361 90.6257 344.78 104.26 360.735 123.301L339.065 141.603C326.863 127.04 310.482 116.612 292.158 111.744C273.834 106.875 254.459 107.802 236.68 114.399C218.9 120.996 203.581 132.941 192.815 148.604C182.048 164.267 176.357 182.884 176.52 201.914C176.684 220.944 182.692 239.46 193.726 254.934C204.759 270.408 220.28 282.087 238.17 288.376C256.06 294.665 275.448 295.257 293.686 290.073C311.924 284.888 328.124 274.18 340.075 259.408L362.054 277.333Z" stroke="#27AE60" stroke-width="102.302" mask="url(#path-5-inside-1_34_13)"/>
<path d="M235.627 226.198L211.647 243.753C192.463 216.467 197.326 187.241 202.155 176.039C213.745 139.524 251.614 130.395 269.099 130.395V160.49C252.713 159.688 239.957 170.522 235.627 176.039C219.241 196.905 228.8 218.172 235.627 226.198Z" fill="#005FF9"/>
<ellipse cx="269.1" cy="201.62" rx="20.9825" ry="21.0665" fill="#005FF9"/>
</g>
<defs>
<linearGradient id="paint0_linear_34_13" x1="-187.5" y1="-187.5" x2="215" y2="212.5" gradientUnits="userSpaceOnUse">
<stop offset="0.139278" stop-color="#005FF9"/>
<stop offset="1" stop-color="#D9D9D9" stop-opacity="0"/>
</linearGradient>
<linearGradient id="paint1_linear_34_13" x1="619" y1="621" x2="327.5" y2="329.5" gradientUnits="userSpaceOnUse">
<stop stop-color="#2970FF"/>
<stop offset="1" stop-color="#D9D9D9" stop-opacity="0"/>
</linearGradient>
<clipPath id="clip0_34_13">
<rect width="512" height="512" fill="white"/>
</clipPath>
</defs>
</svg>
