<svg width="7" height="17" viewBox="0 0 7 17" fill="none" xmlns="http://www.w3.org/2000/svg">
<path d="M5.16602 0.42334C5.63021 0.42334 6.01953 0.58431 6.33398 0.90625C6.65592 1.22819 6.81689 1.61751 6.81689 2.07422C6.81689 2.53092 6.65592 2.92025 6.33398 3.24219C6.01204 3.56413 5.62272 3.7251 5.16602 3.7251C4.7168 3.7251 4.33122 3.56413 4.00928 3.24219C3.68734 2.92025 3.52637 2.53092 3.52637 2.07422C3.52637 1.61751 3.68359 1.22819 3.99805 0.90625C4.31999 0.58431 4.70931 0.42334 5.16602 0.42334ZM5.8623 5.58936L3.56006 13.5742C3.43278 14.0309 3.36914 14.3304 3.36914 14.4727C3.36914 14.555 3.40283 14.6336 3.47021 14.7085C3.5376 14.7759 3.60872 14.8096 3.68359 14.8096C3.81087 14.8096 3.93815 14.7534 4.06543 14.6411C4.40234 14.3641 4.80664 13.8625 5.27832 13.1362L5.66016 13.3608C4.52962 15.3299 3.32796 16.3145 2.05518 16.3145C1.56852 16.3145 1.1792 16.1797 0.887207 15.9102C0.602702 15.6331 0.460449 15.285 0.460449 14.8657C0.460449 14.5887 0.524089 14.2368 0.651367 13.8101L2.2124 8.44189C2.36214 7.92529 2.43701 7.53597 2.43701 7.27393C2.43701 7.10921 2.36589 6.96322 2.22363 6.83594C2.08138 6.70866 1.88672 6.64502 1.63965 6.64502C1.52734 6.64502 1.39258 6.64876 1.23535 6.65625L1.38135 6.20703L5.18848 5.58936H5.8623Z" fill="#3063F6"/>
</svg>
