<svg width="22" height="17" viewBox="0 0 22 17" fill="none" xmlns="http://www.w3.org/2000/svg">
<path d="M22 8.5C22 9.2824 21.3657 9.91667 20.5833 9.91667H1.41667C0.634264 9.91667 0 9.2824 0 8.5C0 7.7176 0.634264 7.08333 1.41667 7.08333H20.5833C21.3657 7.08333 22 7.7176 22 8.5ZM20.5833 0C21.3657 0 22 0.634263 22 1.41667C22 2.19907 21.3657 2.83333 20.5833 2.83333H1.41667C0.634264 2.83333 0 2.19907 0 1.41667C0 0.634263 0.634264 0 1.41667 0H20.5833ZM22 15.5833C22 16.3657 21.3657 17 20.5833 17H10.4167C9.63426 17 9 16.3657 9 15.5833C9 14.8009 9.63426 14.1667 10.4167 14.1667H20.5833C21.3657 14.1667 22 14.8009 22 15.5833Z" fill="white"/>
</svg>
